<mxfile host="app.diagrams.net" modified="2022-08-06T19:04:02.484Z" agent="5.0 (Windows NT 10.0; Win64; x64) AppleWebKit/537.36 (KHTML, like Gecko) Chrome/103.0.0.0 Safari/537.36" etag="rNa3i7rqElDzTtBw23Ew" version="20.2.3" type="github">
  <diagram id="SQxKlbvZEa4slQF1dQ3-" name="Page-1">
    <mxGraphModel dx="1422" dy="786" grid="1" gridSize="10" guides="1" tooltips="1" connect="1" arrows="1" fold="1" page="1" pageScale="1" pageWidth="850" pageHeight="1100" math="0" shadow="0">
      <root>
        <mxCell id="0" />
        <mxCell id="1" parent="0" />
        <mxCell id="rhb4sMrXkV4fMNnin1ub-1" value="" style="image;image=img/lib/atlassian/Bitbucket_Logo.svg;" vertex="1" parent="1">
          <mxGeometry x="70" y="198" width="57" height="50" as="geometry" />
        </mxCell>
        <mxCell id="rhb4sMrXkV4fMNnin1ub-3" value="" style="rounded=1;whiteSpace=wrap;html=1;" vertex="1" parent="1">
          <mxGeometry x="694.99" y="210" width="250" height="320" as="geometry" />
        </mxCell>
        <mxCell id="rhb4sMrXkV4fMNnin1ub-4" value="" style="verticalLabelPosition=bottom;html=1;verticalAlign=top;align=center;strokeColor=none;fillColor=#00BEF2;shape=mxgraph.azure.virtual_machine;" vertex="1" parent="1">
          <mxGeometry x="769.99" y="230" width="50" height="40" as="geometry" />
        </mxCell>
        <mxCell id="rhb4sMrXkV4fMNnin1ub-5" value="" style="verticalLabelPosition=bottom;html=1;verticalAlign=top;align=center;strokeColor=none;fillColor=#00BEF2;shape=mxgraph.azure.virtual_machine;" vertex="1" parent="1">
          <mxGeometry x="769.99" y="339" width="50" height="40" as="geometry" />
        </mxCell>
        <mxCell id="rhb4sMrXkV4fMNnin1ub-6" value="" style="verticalLabelPosition=bottom;html=1;verticalAlign=top;align=center;strokeColor=none;fillColor=#00BEF2;shape=mxgraph.azure.virtual_machine;" vertex="1" parent="1">
          <mxGeometry x="769.99" y="440" width="50" height="40" as="geometry" />
        </mxCell>
        <mxCell id="rhb4sMrXkV4fMNnin1ub-7" value="Cloud" style="ellipse;shape=cloud;whiteSpace=wrap;html=1;align=center;" vertex="1" parent="1">
          <mxGeometry x="834.99" y="220" width="100" height="60" as="geometry" />
        </mxCell>
        <mxCell id="rhb4sMrXkV4fMNnin1ub-8" value="" style="edgeStyle=orthogonalEdgeStyle;rounded=0;orthogonalLoop=1;jettySize=auto;html=1;fontSize=12;" edge="1" parent="1" source="rhb4sMrXkV4fMNnin1ub-11" target="rhb4sMrXkV4fMNnin1ub-1">
          <mxGeometry relative="1" as="geometry" />
        </mxCell>
        <mxCell id="rhb4sMrXkV4fMNnin1ub-10" value="" style="rounded=1;whiteSpace=wrap;html=1;" vertex="1" parent="1">
          <mxGeometry x="220" y="50" width="392.99" height="580" as="geometry" />
        </mxCell>
        <mxCell id="rhb4sMrXkV4fMNnin1ub-11" value="" style="verticalLabelPosition=bottom;html=1;verticalAlign=top;align=center;strokeColor=none;fillColor=#00BEF2;shape=mxgraph.azure.user;" vertex="1" parent="1">
          <mxGeometry x="74.75" y="40" width="47.5" height="50" as="geometry" />
        </mxCell>
        <mxCell id="rhb4sMrXkV4fMNnin1ub-12" value="Integration" style="text;strokeColor=none;fillColor=none;html=1;fontSize=12;fontStyle=1;verticalAlign=middle;align=center;" vertex="1" parent="1">
          <mxGeometry x="744.99" y="260" width="100" height="40" as="geometry" />
        </mxCell>
        <mxCell id="rhb4sMrXkV4fMNnin1ub-13" value="QA" style="text;strokeColor=none;fillColor=none;html=1;fontSize=12;fontStyle=1;verticalAlign=middle;align=center;" vertex="1" parent="1">
          <mxGeometry x="744.99" y="375" width="100" height="40" as="geometry" />
        </mxCell>
        <mxCell id="rhb4sMrXkV4fMNnin1ub-14" value="Production" style="text;strokeColor=none;fillColor=none;html=1;fontSize=12;fontStyle=1;verticalAlign=middle;align=center;" vertex="1" parent="1">
          <mxGeometry x="744.99" y="480" width="100" height="40" as="geometry" />
        </mxCell>
        <mxCell id="rhb4sMrXkV4fMNnin1ub-15" value="Teamcity" style="text;strokeColor=none;fillColor=none;html=1;fontSize=12;fontStyle=1;verticalAlign=middle;align=center;" vertex="1" parent="1">
          <mxGeometry x="346.99" y="70" width="100" height="30" as="geometry" />
        </mxCell>
        <mxCell id="rhb4sMrXkV4fMNnin1ub-16" value="" style="shape=image;html=1;verticalAlign=top;verticalLabelPosition=bottom;labelBackgroundColor=#ffffff;imageAspect=0;aspect=fixed;image=https://cdn4.iconfinder.com/data/icons/humility-icons-MERGE/48x48/apps/control-center2.png" vertex="1" parent="1">
          <mxGeometry x="372.99" y="30" width="48" height="48" as="geometry" />
        </mxCell>
        <mxCell id="rhb4sMrXkV4fMNnin1ub-17" value="" style="edgeStyle=none;rounded=0;orthogonalLoop=1;jettySize=auto;html=1;fontSize=12;entryX=0.5;entryY=0;entryDx=0;entryDy=0;entryPerimeter=0;" edge="1" parent="1" source="rhb4sMrXkV4fMNnin1ub-19" target="rhb4sMrXkV4fMNnin1ub-41">
          <mxGeometry relative="1" as="geometry">
            <mxPoint x="402.99" y="270" as="targetPoint" />
          </mxGeometry>
        </mxCell>
        <mxCell id="rhb4sMrXkV4fMNnin1ub-77" style="edgeStyle=none;rounded=0;orthogonalLoop=1;jettySize=auto;html=1;exitX=1;exitY=0.5;exitDx=0;exitDy=0;entryX=0;entryY=0.25;entryDx=0;entryDy=0;" edge="1" parent="1" source="rhb4sMrXkV4fMNnin1ub-19" target="rhb4sMrXkV4fMNnin1ub-42">
          <mxGeometry relative="1" as="geometry" />
        </mxCell>
        <mxCell id="rhb4sMrXkV4fMNnin1ub-78" value="Successful&lt;br&gt;build on&lt;br&gt;development or&lt;br&gt;hotifx/* branch&lt;br&gt;trigger" style="edgeLabel;html=1;align=center;verticalAlign=middle;resizable=0;points=[];labelBorderColor=default;" vertex="1" connectable="0" parent="rhb4sMrXkV4fMNnin1ub-77">
          <mxGeometry x="-0.4786" y="-4" relative="1" as="geometry">
            <mxPoint x="19" y="7" as="offset" />
          </mxGeometry>
        </mxCell>
        <mxCell id="rhb4sMrXkV4fMNnin1ub-19" value="" style="aspect=fixed;perimeter=ellipsePerimeter;html=1;align=center;shadow=0;dashed=0;fontColor=#4277BB;labelBackgroundColor=#ffffff;fontSize=12;spacingTop=3;image;image=img/lib/ibm/devops/build_test.svg;" vertex="1" parent="1">
          <mxGeometry x="240" y="127" width="60" height="60" as="geometry" />
        </mxCell>
        <mxCell id="rhb4sMrXkV4fMNnin1ub-20" value="Compile / Test" style="text;strokeColor=none;fillColor=none;html=1;fontSize=12;fontStyle=1;verticalAlign=middle;align=center;" vertex="1" parent="1">
          <mxGeometry x="220" y="90" width="100" height="40" as="geometry" />
        </mxCell>
        <mxCell id="rhb4sMrXkV4fMNnin1ub-21" value="" style="rounded=0;orthogonalLoop=1;jettySize=auto;html=1;fontSize=12;entryX=0;entryY=0.75;entryDx=0;entryDy=0;" edge="1" parent="1" source="rhb4sMrXkV4fMNnin1ub-1" target="rhb4sMrXkV4fMNnin1ub-19">
          <mxGeometry relative="1" as="geometry" />
        </mxCell>
        <mxCell id="rhb4sMrXkV4fMNnin1ub-22" value="New commit&lt;br&gt;on www repo" style="edgeLabel;html=1;align=center;verticalAlign=middle;resizable=0;points=[];fontSize=12;labelBorderColor=default;" vertex="1" connectable="0" parent="rhb4sMrXkV4fMNnin1ub-21">
          <mxGeometry x="-0.3168" y="2" relative="1" as="geometry">
            <mxPoint x="3" y="1" as="offset" />
          </mxGeometry>
        </mxCell>
        <mxCell id="rhb4sMrXkV4fMNnin1ub-34" value="" style="aspect=fixed;perimeter=ellipsePerimeter;html=1;align=center;shadow=0;dashed=0;fontColor=#4277BB;labelBackgroundColor=#ffffff;fontSize=12;spacingTop=3;image;image=img/lib/ibm/devops/build_test.svg;" vertex="1" parent="1">
          <mxGeometry x="240" y="539" width="60" height="60" as="geometry" />
        </mxCell>
        <mxCell id="rhb4sMrXkV4fMNnin1ub-73" style="edgeStyle=none;rounded=0;orthogonalLoop=1;jettySize=auto;html=1;exitX=0.5;exitY=0;exitDx=0;exitDy=0;entryX=0.5;entryY=1;entryDx=0;entryDy=0;" edge="1" parent="1" source="rhb4sMrXkV4fMNnin1ub-35" target="rhb4sMrXkV4fMNnin1ub-39">
          <mxGeometry relative="1" as="geometry" />
        </mxCell>
        <mxCell id="rhb4sMrXkV4fMNnin1ub-35" value="Generate Sitecore&lt;br&gt;V8 Deploy Scripts" style="text;strokeColor=none;fillColor=none;html=1;fontSize=12;fontStyle=1;verticalAlign=middle;align=center;" vertex="1" parent="1">
          <mxGeometry x="220" y="502" width="100" height="40" as="geometry" />
        </mxCell>
        <mxCell id="rhb4sMrXkV4fMNnin1ub-74" style="edgeStyle=none;rounded=0;orthogonalLoop=1;jettySize=auto;html=1;exitX=1;exitY=0.675;exitDx=0;exitDy=0;exitPerimeter=0;entryX=0;entryY=0.25;entryDx=0;entryDy=0;" edge="1" parent="1" source="rhb4sMrXkV4fMNnin1ub-37" target="rhb4sMrXkV4fMNnin1ub-52">
          <mxGeometry relative="1" as="geometry" />
        </mxCell>
        <mxCell id="rhb4sMrXkV4fMNnin1ub-75" style="edgeStyle=none;rounded=0;orthogonalLoop=1;jettySize=auto;html=1;exitX=1;exitY=0.675;exitDx=0;exitDy=0;exitPerimeter=0;entryX=0;entryY=0.5;entryDx=0;entryDy=0;" edge="1" parent="1" source="rhb4sMrXkV4fMNnin1ub-37" target="rhb4sMrXkV4fMNnin1ub-50">
          <mxGeometry relative="1" as="geometry" />
        </mxCell>
        <mxCell id="rhb4sMrXkV4fMNnin1ub-76" style="edgeStyle=none;rounded=0;orthogonalLoop=1;jettySize=auto;html=1;exitX=1;exitY=0.675;exitDx=0;exitDy=0;exitPerimeter=0;entryX=0;entryY=0.5;entryDx=0;entryDy=0;" edge="1" parent="1" source="rhb4sMrXkV4fMNnin1ub-37" target="rhb4sMrXkV4fMNnin1ub-42">
          <mxGeometry relative="1" as="geometry" />
        </mxCell>
        <mxCell id="rhb4sMrXkV4fMNnin1ub-37" value="" style="outlineConnect=0;dashed=0;verticalLabelPosition=bottom;verticalAlign=top;align=center;html=1;shape=mxgraph.aws3.artifact;fillColor=#759C3E;gradientColor=none;" vertex="1" parent="1">
          <mxGeometry x="245" y="340" width="50" height="60" as="geometry" />
        </mxCell>
        <mxCell id="rhb4sMrXkV4fMNnin1ub-39" value="sitecorev8_&lt;br&gt;deploy_&lt;br&gt;scripts.zip" style="text;strokeColor=none;fillColor=none;html=1;fontSize=12;fontStyle=1;verticalAlign=middle;align=center;" vertex="1" parent="1">
          <mxGeometry x="220" y="400" width="100" height="40" as="geometry" />
        </mxCell>
        <mxCell id="rhb4sMrXkV4fMNnin1ub-40" value="ISC2.WWW.&lt;br&gt;Sitecore.*.zip" style="text;strokeColor=none;fillColor=none;html=1;fontSize=12;fontStyle=1;verticalAlign=middle;align=center;" vertex="1" parent="1">
          <mxGeometry x="220" y="290" width="100" height="40" as="geometry" />
        </mxCell>
        <mxCell id="rhb4sMrXkV4fMNnin1ub-70" style="edgeStyle=none;rounded=0;orthogonalLoop=1;jettySize=auto;html=1;exitX=1;exitY=0.675;exitDx=0;exitDy=0;exitPerimeter=0;entryX=0;entryY=0.5;entryDx=0;entryDy=0;" edge="1" parent="1" source="rhb4sMrXkV4fMNnin1ub-41" target="rhb4sMrXkV4fMNnin1ub-42">
          <mxGeometry relative="1" as="geometry" />
        </mxCell>
        <mxCell id="rhb4sMrXkV4fMNnin1ub-71" style="edgeStyle=none;rounded=0;orthogonalLoop=1;jettySize=auto;html=1;exitX=1;exitY=0.675;exitDx=0;exitDy=0;exitPerimeter=0;entryX=0;entryY=0.5;entryDx=0;entryDy=0;" edge="1" parent="1" source="rhb4sMrXkV4fMNnin1ub-41" target="rhb4sMrXkV4fMNnin1ub-50">
          <mxGeometry relative="1" as="geometry" />
        </mxCell>
        <mxCell id="rhb4sMrXkV4fMNnin1ub-72" style="edgeStyle=none;rounded=0;orthogonalLoop=1;jettySize=auto;html=1;exitX=1;exitY=0.675;exitDx=0;exitDy=0;exitPerimeter=0;entryX=0;entryY=0.25;entryDx=0;entryDy=0;" edge="1" parent="1" source="rhb4sMrXkV4fMNnin1ub-41" target="rhb4sMrXkV4fMNnin1ub-52">
          <mxGeometry relative="1" as="geometry" />
        </mxCell>
        <mxCell id="rhb4sMrXkV4fMNnin1ub-41" value="" style="outlineConnect=0;dashed=0;verticalLabelPosition=bottom;verticalAlign=top;align=center;html=1;shape=mxgraph.aws3.artifact;fillColor=#759C3E;gradientColor=none;" vertex="1" parent="1">
          <mxGeometry x="245" y="230" width="50" height="60" as="geometry" />
        </mxCell>
        <mxCell id="rhb4sMrXkV4fMNnin1ub-49" style="rounded=0;orthogonalLoop=1;jettySize=auto;html=1;exitX=1;exitY=0.5;exitDx=0;exitDy=0;entryX=0.25;entryY=0;entryDx=0;entryDy=0;" edge="1" parent="1" source="rhb4sMrXkV4fMNnin1ub-42" target="rhb4sMrXkV4fMNnin1ub-12">
          <mxGeometry relative="1" as="geometry" />
        </mxCell>
        <mxCell id="rhb4sMrXkV4fMNnin1ub-42" value="" style="aspect=fixed;perimeter=ellipsePerimeter;html=1;align=center;shadow=0;dashed=0;fontColor=#4277BB;labelBackgroundColor=#ffffff;fontSize=12;spacingTop=3;image;image=img/lib/ibm/devops/build_test.svg;" vertex="1" parent="1">
          <mxGeometry x="412.99" y="215" width="60" height="60" as="geometry" />
        </mxCell>
        <mxCell id="rhb4sMrXkV4fMNnin1ub-43" value="Development&lt;br&gt;Deployment" style="text;strokeColor=none;fillColor=none;html=1;fontSize=12;fontStyle=1;verticalAlign=middle;align=center;" vertex="1" parent="1">
          <mxGeometry x="392.99" y="178" width="100" height="40" as="geometry" />
        </mxCell>
        <mxCell id="rhb4sMrXkV4fMNnin1ub-54" style="edgeStyle=none;rounded=0;orthogonalLoop=1;jettySize=auto;html=1;exitX=1;exitY=0.5;exitDx=0;exitDy=0;" edge="1" parent="1" source="rhb4sMrXkV4fMNnin1ub-50" target="rhb4sMrXkV4fMNnin1ub-5">
          <mxGeometry relative="1" as="geometry" />
        </mxCell>
        <mxCell id="rhb4sMrXkV4fMNnin1ub-50" value="" style="aspect=fixed;perimeter=ellipsePerimeter;html=1;align=center;shadow=0;dashed=0;fontColor=#4277BB;labelBackgroundColor=#ffffff;fontSize=12;spacingTop=3;image;image=img/lib/ibm/devops/build_test.svg;" vertex="1" parent="1">
          <mxGeometry x="412.99" y="327" width="60" height="60" as="geometry" />
        </mxCell>
        <mxCell id="rhb4sMrXkV4fMNnin1ub-51" value="QA Deployment" style="text;strokeColor=none;fillColor=none;html=1;fontSize=12;fontStyle=1;verticalAlign=middle;align=center;" vertex="1" parent="1">
          <mxGeometry x="392.99" y="290" width="100" height="40" as="geometry" />
        </mxCell>
        <mxCell id="rhb4sMrXkV4fMNnin1ub-55" style="edgeStyle=none;rounded=0;orthogonalLoop=1;jettySize=auto;html=1;exitX=1;exitY=0.5;exitDx=0;exitDy=0;entryX=0;entryY=0.5;entryDx=0;entryDy=0;entryPerimeter=0;" edge="1" parent="1" source="rhb4sMrXkV4fMNnin1ub-52" target="rhb4sMrXkV4fMNnin1ub-6">
          <mxGeometry relative="1" as="geometry" />
        </mxCell>
        <mxCell id="rhb4sMrXkV4fMNnin1ub-52" value="" style="aspect=fixed;perimeter=ellipsePerimeter;html=1;align=center;shadow=0;dashed=0;fontColor=#4277BB;labelBackgroundColor=#ffffff;fontSize=12;spacingTop=3;image;image=img/lib/ibm/devops/build_test.svg;" vertex="1" parent="1">
          <mxGeometry x="412.99" y="437" width="60" height="60" as="geometry" />
        </mxCell>
        <mxCell id="rhb4sMrXkV4fMNnin1ub-53" value="Production&lt;br&gt;Deployment" style="text;strokeColor=none;fillColor=none;html=1;fontSize=12;fontStyle=1;verticalAlign=middle;align=center;" vertex="1" parent="1">
          <mxGeometry x="392.99" y="400" width="100" height="40" as="geometry" />
        </mxCell>
        <mxCell id="rhb4sMrXkV4fMNnin1ub-56" value="Snapshot dependency on Development Deployment" style="whiteSpace=wrap;html=1;shape=mxgraph.basic.rectCallout;dx=30;dy=15;boundedLbl=1;labelBorderColor=none;strokeColor=default;" vertex="1" parent="1">
          <mxGeometry x="502.99" y="290" width="150" height="60" as="geometry" />
        </mxCell>
        <mxCell id="rhb4sMrXkV4fMNnin1ub-57" value="Snapshot dependency on QA Deployment" style="whiteSpace=wrap;html=1;shape=mxgraph.basic.rectCallout;dx=30;dy=15;boundedLbl=1;labelBorderColor=none;strokeColor=default;" vertex="1" parent="1">
          <mxGeometry x="492.99" y="400" width="150" height="60" as="geometry" />
        </mxCell>
        <mxCell id="rhb4sMrXkV4fMNnin1ub-64" style="edgeStyle=none;rounded=0;orthogonalLoop=1;jettySize=auto;html=1;exitX=1;exitY=0.75;exitDx=0;exitDy=0;entryX=0;entryY=0.5;entryDx=0;entryDy=0;" edge="1" parent="1" source="rhb4sMrXkV4fMNnin1ub-1" target="rhb4sMrXkV4fMNnin1ub-34">
          <mxGeometry relative="1" as="geometry" />
        </mxCell>
        <mxCell id="rhb4sMrXkV4fMNnin1ub-65" value="New commit on&lt;br&gt;Delivery repo" style="edgeLabel;html=1;align=center;verticalAlign=middle;resizable=0;points=[];labelBorderColor=default;" vertex="1" connectable="0" parent="rhb4sMrXkV4fMNnin1ub-64">
          <mxGeometry x="-0.419" y="-1" relative="1" as="geometry">
            <mxPoint as="offset" />
          </mxGeometry>
        </mxCell>
      </root>
    </mxGraphModel>
  </diagram>
</mxfile>
